<svg width="512" height="512" viewBox="0 0 512 512" fill="none" xmlns="http://www.w3.org/2000/svg">
<g clip-path="url(#clip0_1_2)">
<rect width="512" height="512" fill="white"/>
<path d="M314.566 292.978C337.266 362.289 388.114 405.267 467.11 421.914C457.727 433.415 449.707 446.43 443.048 460.958C372.527 436.745 326.673 384.383 305.486 303.874C308.513 300.242 311.539 296.61 314.566 292.978ZM325.462 169.49L326.824 266.192C326.824 360.321 276.279 422.973 175.188 454.148C171.253 455.359 167.621 455.964 164.292 455.964C160.66 455.964 157.936 455.056 156.12 453.24C154.001 451.727 152.942 450.213 152.942 448.7C152.942 447.489 153.547 445.976 154.758 444.16C244.045 414.196 288.688 356.235 288.688 270.278V168.128L325.462 169.49ZM450.312 339.286H199.25C190.473 339.891 183.36 341.102 177.912 342.918C172.161 345.037 168.983 346.096 168.378 346.096L147.04 327.482V326.12C147.04 325.515 147.645 324.758 148.856 323.85C166.108 327.179 185.63 328.844 207.422 328.844H396.74L425.342 301.15C448.647 320.823 460.3 332.173 460.3 335.2C460.3 337.924 456.971 339.286 450.312 339.286ZM418.532 288.438H230.576C221.799 289.043 214.686 290.254 209.238 292.07C203.487 294.189 200.309 295.248 199.704 295.248L178.366 276.634V275.272C178.366 274.667 178.971 273.91 180.182 273.002C197.434 276.331 216.956 277.996 238.748 277.996H364.96L393.562 250.302C416.867 268.159 428.52 279.509 428.52 284.352C428.52 287.076 425.191 288.438 418.532 288.438ZM385.39 216.252V185.38C385.39 181.143 384.482 177.813 382.666 175.392H227.852V216.252H385.39ZM384.936 227.602H228.76C229.971 233.655 230.576 237.59 230.576 239.406C229.668 245.459 218.621 248.486 197.434 248.486C191.683 248.486 188.808 244.703 188.808 237.136L191.532 199.908V170.852L188.354 148.152V146.336C188.354 145.731 189.111 145.428 190.624 145.428C192.137 145.428 199.099 148.001 211.508 153.146C223.917 158.291 232.392 161.621 236.932 163.134H372.224L399.918 139.072C425.947 157.837 438.811 170.095 438.508 175.846L421.71 195.822V205.81L424.434 236.228C423.526 242.281 412.781 245.308 392.2 245.308C387.055 245.308 384.482 241.222 384.482 233.05C384.482 231.537 384.633 229.721 384.936 227.602ZM280.516 70.518V96.85H327.732V69.156L325.462 49.18V48.726C325.462 46.91 326.824 46.002 329.548 46.002C331.969 46.002 340.595 47.0613 355.426 49.18C370.257 51.2987 377.672 53.5687 377.672 55.99L364.052 70.518V96.85H399.01C403.247 90.7966 410.965 82.1706 422.164 70.972C443.048 88.8293 453.49 99.7253 453.49 103.66C453.49 107.595 451.674 109.713 448.042 110.016H364.052L366.776 139.526C365.868 145.579 355.123 148.606 334.542 148.606C329.397 148.606 326.37 145.125 325.462 138.164L327.732 110.016H280.516L283.24 139.526C282.332 145.579 271.587 148.606 251.006 148.606C245.861 148.606 242.834 145.125 241.926 138.164L244.196 110.016H211.508C200.915 110.016 189.867 111.378 178.366 114.102L160.206 91.856C174.431 95.1853 188.505 96.85 202.428 96.85H244.196V69.156L241.926 49.18V48.726C241.926 46.91 243.288 46.002 246.012 46.002C248.433 46.002 257.059 47.0613 271.89 49.18C286.721 51.2987 294.136 53.5687 294.136 55.99L280.516 70.518ZM116.622 387.41L123.886 421.46C123.886 443.555 115.411 454.602 98.462 454.602H94.83C86.3553 454.602 82.118 449.911 82.118 440.528C82.118 438.712 83.1773 430.994 85.296 417.374C87.112 403.754 88.02 389.377 88.02 374.244C80.4533 360.927 70.768 349.879 58.964 341.102C56.5427 336.259 54.2727 331.568 52.154 327.028C62.142 330.055 69.1033 331.568 73.038 331.568C81.5127 331.568 88.02 328.239 92.56 321.58C112.839 298.577 133.269 252.875 153.85 184.472C154.758 181.143 156.423 178.57 158.844 176.754C160.963 175.241 162.779 174.333 164.292 174.03C165.805 174.03 167.47 174.635 169.286 175.846C171.102 177.359 172.01 179.629 172.01 182.656C135.085 291.313 116.622 359.565 116.622 387.41ZM79.394 67.34C76.9727 65.524 75.4593 63.1026 74.854 60.076C74.5513 57.0493 76.216 55.2333 79.848 54.628C83.7827 54.3253 92.106 57.2006 104.818 63.254C135.387 78.69 151.58 95.034 153.396 112.286C154.607 124.09 149.613 130.597 138.414 131.808C132.058 132.413 126.307 127.873 121.162 118.188C109.963 97.0013 96.0407 80.052 79.394 67.34ZM47.16 169.036C44.436 166.917 42.9227 164.345 42.62 161.318C42.3173 158.594 43.982 157.081 47.614 156.778C51.5487 156.173 59.872 158.897 72.584 164.95C103.153 180.386 119.346 196.73 121.162 213.982C122.373 225.786 117.379 232.293 106.18 233.504C99.824 234.109 94.0733 229.569 88.928 219.884C78.3347 199.908 64.412 182.959 47.16 169.036Z" fill="#2563EB"/>
</g>
<defs>
<clipPath id="clip0_1_2">
<rect width="512" height="512" fill="white"/>
</clipPath>
</defs>
</svg>
